<svg width="1440" height="594" viewBox="0 0 1440 594" fill="none" xmlns="http://www.w3.org/2000/svg">
<path d="M494 232.001C221.201 82.0014 46.6671 264.501 -6.49953 374.501H-29.4995C-38.3329 416.501 -46.0995 500.5 -6.49953 500.5C43.0005 500.5 113 333 325 500.5C537 668 706 565 739 533.5C772 502 866.5 335 984 333C1101.5 331 1264 374.501 1469.5 447.5C1633.9 505.899 1607.33 353.666 1578 262.5C1567 264.667 1508.3 216.401 1325.5 68.0015C1142.7 -80.3985 1032.67 50.5015 1000.5 134.501C945.334 229.501 766.8 382.001 494 232.001Z" fill="#6E82FE" fill-opacity="0.4"/>
</svg>
