<svg width="1412" height="594" viewBox="0 0 1412 594" fill="none" xmlns="http://www.w3.org/2000/svg">
<path d="M530.637 231.392C257.837 81.392 83.3039 263.892 30.1372 373.892H7.13719C-1.69615 415.892 -9.46281 499.891 30.1372 499.891C79.6372 499.891 149.637 332.391 361.637 499.891C573.637 667.391 742.637 564.391 775.637 532.891C808.637 501.391 903.137 334.391 1020.64 332.391C1138.14 330.391 1300.64 373.892 1506.14 446.891C1670.54 505.289 1652.97 337.557 1623.64 246.391C1612.64 248.558 1544.94 215.792 1362.14 67.3921C1179.34 -81.0079 1069.3 49.8921 1037.14 133.892C981.971 228.892 803.437 381.392 530.637 231.392Z" fill="#6E82FE" fill-opacity="0.4"/>
</svg>
